<svg id="visual" viewBox="0 0 960 540" width="960" height="540" xmlns="http://www.w3.org/2000/svg" xmlns:xlink="http://www.w3.org/1999/xlink" version="1.1"><g stroke-width="2" stroke-linejoin="bevel"><path d="M481.3 284.6L489.7 236.4L460 267.5Z" fill="#19435d" stroke="#001122"></path><path d="M555 298.5L497 226.4L489.7 236.4Z" fill="#081a28" stroke="#001122"></path><path d="M489.7 236.4L459.7 211.5L460 267.5Z" fill="#081a28" stroke="#001122"></path><path d="M497 226.4L459.7 211.5L489.7 236.4Z" fill="#277297" stroke="#001122"></path><path d="M417.7 305.6L458.3 322.5L460 267.5Z" fill="#0c2435" stroke="#001122"></path><path d="M460 267.5L458.3 322.5L481.3 284.6Z" fill="#1d4e6b" stroke="#001122"></path><path d="M459.7 211.5L417.7 305.6L460 267.5Z" fill="#246688" stroke="#001122"></path><path d="M538 337.6L555 298.5L481.3 284.6Z" fill="#00101c" stroke="#001122"></path><path d="M481.3 284.6L555 298.5L489.7 236.4Z" fill="#1d4e6b" stroke="#001122"></path><path d="M555 298.5L563 223.5L497 226.4Z" fill="#112e42" stroke="#001122"></path><path d="M486 139.2L442.3 175.4L459.7 211.5Z" fill="#246688" stroke="#001122"></path><path d="M563 223.5L563 215.4L497 226.4Z" fill="#0c2435" stroke="#001122"></path><path d="M514 152.3L459.7 211.5L497 226.4Z" fill="#081a28" stroke="#001122"></path><path d="M459.7 211.5L436.3 176.3L417.7 305.6Z" fill="#081a28" stroke="#001122"></path><path d="M458.3 322.5L538 337.6L481.3 284.6Z" fill="#00101c" stroke="#001122"></path><path d="M442.3 175.4L436.3 176.3L459.7 211.5Z" fill="#246688" stroke="#001122"></path><path d="M538 337.6L566.7 310.7L555 298.5Z" fill="#081a28" stroke="#001122"></path><path d="M555 298.5L609.7 230.5L563 223.5Z" fill="#0c2435" stroke="#001122"></path><path d="M563 223.5L609.7 230.5L563 215.4Z" fill="#297ea6" stroke="#001122"></path><path d="M538 337.6L560.7 336.5L566.7 310.7Z" fill="#205a7a" stroke="#001122"></path><path d="M563 215.4L514 152.3L497 226.4Z" fill="#205a7a" stroke="#001122"></path><path d="M442.3 175.4L459.3 131.4L436.3 176.3Z" fill="#277297" stroke="#001122"></path><path d="M560.7 336.5L575.3 325.5L566.7 310.7Z" fill="#297ea6" stroke="#001122"></path><path d="M566.7 310.7L593 310.5L555 298.5Z" fill="#205a7a" stroke="#001122"></path><path d="M575.3 325.5L593 310.5L566.7 310.7Z" fill="#297ea6" stroke="#001122"></path><path d="M514 152.3L486 139.2L459.7 211.5Z" fill="#1d4e6b" stroke="#001122"></path><path d="M593 310.5L609.7 230.5L555 298.5Z" fill="#15384f" stroke="#001122"></path><path d="M589 121.2L569.3 113.3L514 152.3Z" fill="#00101c" stroke="#001122"></path><path d="M486 139.2L459.3 131.4L442.3 175.4Z" fill="#081a28" stroke="#001122"></path><path d="M510.7 406.8L554.7 376.6L538 337.6Z" fill="#00101c" stroke="#001122"></path><path d="M538 337.6L554.7 376.6L560.7 336.5Z" fill="#15384f" stroke="#001122"></path><path d="M560.7 336.5L554.7 376.6L575.3 325.5Z" fill="#1d4e6b" stroke="#001122"></path><path d="M575.3 325.5L657.3 353.5L593 310.5Z" fill="#00101c" stroke="#001122"></path><path d="M510.7 406.8L538 337.6L458.3 322.5Z" fill="#081a28" stroke="#001122"></path><path d="M609.7 230.5L609.7 205.3L563 215.4Z" fill="#0c2435" stroke="#001122"></path><path d="M350.7 328.5L381 360.5L417.7 305.6Z" fill="#15384f" stroke="#001122"></path><path d="M417.7 305.6L381 360.5L458.3 322.5Z" fill="#15384f" stroke="#001122"></path><path d="M381 360.5L467.7 411.7L458.3 322.5Z" fill="#19435d" stroke="#001122"></path><path d="M467.7 411.7L510.7 406.8L458.3 322.5Z" fill="#0c2435" stroke="#001122"></path><path d="M326.7 295.6L350.7 328.5L417.7 305.6Z" fill="#0c2435" stroke="#001122"></path><path d="M381 360.5L360.3 350.5L380 364.6Z" fill="#112e42" stroke="#001122"></path><path d="M326.7 295.6L417.7 305.6L341.3 166.5Z" fill="#0c2435" stroke="#001122"></path><path d="M431.7 423.8L467.7 411.7L381 360.5Z" fill="#277297" stroke="#001122"></path><path d="M350.7 328.5L360.3 350.5L381 360.5Z" fill="#205a7a" stroke="#001122"></path><path d="M341.3 166.5L417.7 305.6L436.3 176.3Z" fill="#19435d" stroke="#001122"></path><path d="M289.3 405.7L307.3 416.8L360.3 350.5Z" fill="#081a28" stroke="#001122"></path><path d="M326.7 295.6L329 310.7L350.7 328.5Z" fill="#19435d" stroke="#001122"></path><path d="M376.3 94.1L356.7 156.3L436.3 176.3Z" fill="#297ea6" stroke="#001122"></path><path d="M657.3 353.5L652.3 269.6L593 310.5Z" fill="#246688" stroke="#001122"></path><path d="M593 310.5L652.3 269.6L609.7 230.5Z" fill="#246688" stroke="#001122"></path><path d="M609.7 230.5L651.3 196.5L609.7 205.3Z" fill="#15384f" stroke="#001122"></path><path d="M619.3 154.4L563 215.4L609.7 205.3Z" fill="#297ea6" stroke="#001122"></path><path d="M589 121.2L514 152.3L563 215.4Z" fill="#19435d" stroke="#001122"></path><path d="M514 152.3L551.3 71.2L486 139.2Z" fill="#112e42" stroke="#001122"></path><path d="M486 139.2L452.3 84.1L459.3 131.4Z" fill="#00101c" stroke="#001122"></path><path d="M356.7 156.3L341.3 166.5L436.3 176.3Z" fill="#19435d" stroke="#001122"></path><path d="M380 364.6L431.7 423.8L381 360.5Z" fill="#19435d" stroke="#001122"></path><path d="M467.7 411.7L481.3 449.7L510.7 406.8Z" fill="#112e42" stroke="#001122"></path><path d="M367.3 401.6L431.7 423.8L380 364.6Z" fill="#1d4e6b" stroke="#001122"></path><path d="M651.3 196.5L619.3 154.4L609.7 205.3Z" fill="#246688" stroke="#001122"></path><path d="M619.3 154.4L589 121.2L563 215.4Z" fill="#0c2435" stroke="#001122"></path><path d="M476 66.1L452.3 84.1L486 139.2Z" fill="#205a7a" stroke="#001122"></path><path d="M352 116.4L343 125.2L356.7 156.3Z" fill="#15384f" stroke="#001122"></path><path d="M356.7 156.3L343 125.2L341.3 166.5Z" fill="#277297" stroke="#001122"></path><path d="M667.7 261.4L651.3 196.5L609.7 230.5Z" fill="#277297" stroke="#001122"></path><path d="M307.3 416.8L367.3 401.6L360.3 350.5Z" fill="#205a7a" stroke="#001122"></path><path d="M360.3 350.5L367.3 401.6L380 364.6Z" fill="#081a28" stroke="#001122"></path><path d="M720 311.7L667.7 261.4L652.3 269.6Z" fill="#277297" stroke="#001122"></path><path d="M652.3 269.6L667.7 261.4L609.7 230.5Z" fill="#1d4e6b" stroke="#001122"></path><path d="M632.7 88.2L551.3 71.2L569.3 113.3Z" fill="#15384f" stroke="#001122"></path><path d="M619.3 154.4L614.3 125.2L589 121.2Z" fill="#00101c" stroke="#001122"></path><path d="M659 118.3L614.3 125.2L619.3 154.4Z" fill="#19435d" stroke="#001122"></path><path d="M467 463.7L481.3 449.7L431.7 423.8Z" fill="#1d4e6b" stroke="#001122"></path><path d="M431.7 423.8L481.3 449.7L467.7 411.7Z" fill="#277297" stroke="#001122"></path><path d="M510.7 406.8L596.3 420.8L554.7 376.6Z" fill="#15384f" stroke="#001122"></path><path d="M551.3 71.2L476 66.1L486 139.2Z" fill="#205a7a" stroke="#001122"></path><path d="M352 116.4L356.7 156.3L376.3 94.1Z" fill="#15384f" stroke="#001122"></path><path d="M551.3 71.2L514 152.3L569.3 113.3Z" fill="#081a28" stroke="#001122"></path><path d="M436.3 176.3L459.3 131.4L376.3 94.1Z" fill="#19435d" stroke="#001122"></path><path d="M341.3 166.5L283 264.5L326.7 295.6Z" fill="#205a7a" stroke="#001122"></path><path d="M376.3 94.1L459.3 131.4L452.3 84.1Z" fill="#00101c" stroke="#001122"></path><path d="M548.7 484.9L596.3 420.8L510.7 406.8Z" fill="#277297" stroke="#001122"></path><path d="M642 402.6L657.3 353.5L575.3 325.5Z" fill="#246688" stroke="#001122"></path><path d="M642 402.6L575.3 325.5L554.7 376.6Z" fill="#081a28" stroke="#001122"></path><path d="M389 63.1L376.3 94.1L452.3 84.1Z" fill="#00101c" stroke="#001122"></path><path d="M367.3 401.6L400.3 439.7L431.7 423.8Z" fill="#112e42" stroke="#001122"></path><path d="M326.7 295.6L283 264.5L329 310.7Z" fill="#0c2435" stroke="#001122"></path><path d="M289.3 405.7L360.3 350.5L350.7 328.5Z" fill="#277297" stroke="#001122"></path><path d="M273.3 219.5L283 264.5L341.3 166.5Z" fill="#15384f" stroke="#001122"></path><path d="M632.7 88.2L569.3 113.3L589 121.2Z" fill="#0c2435" stroke="#001122"></path><path d="M411 479.8L467 463.7L431.7 423.8Z" fill="#205a7a" stroke="#001122"></path><path d="M481.3 449.7L548.7 484.9L510.7 406.8Z" fill="#205a7a" stroke="#001122"></path><path d="M596.3 420.8L642 402.6L554.7 376.6Z" fill="#297ea6" stroke="#001122"></path><path d="M215 182.5L273.3 219.5L233 127.1Z" fill="#0c2435" stroke="#001122"></path><path d="M408.7 19.1L389 63.1L452.3 84.1Z" fill="#246688" stroke="#001122"></path><path d="M376.3 94.1L346.7 77.2L352 116.4Z" fill="#205a7a" stroke="#001122"></path><path d="M352 116.4L346.7 77.2L343 125.2Z" fill="#15384f" stroke="#001122"></path><path d="M678.7 140.2L619.3 154.4L651.3 196.5Z" fill="#205a7a" stroke="#001122"></path><path d="M678.7 140.2L659 118.3L619.3 154.4Z" fill="#081a28" stroke="#001122"></path><path d="M614.3 125.2L632.7 88.2L589 121.2Z" fill="#081a28" stroke="#001122"></path><path d="M659 118.3L632.7 88.2L614.3 125.2Z" fill="#112e42" stroke="#001122"></path><path d="M389 63.1L354.7 72.2L376.3 94.1Z" fill="#15384f" stroke="#001122"></path><path d="M215 182.5L243.7 218.5L273.3 219.5Z" fill="#277297" stroke="#001122"></path><path d="M354.7 72.2L346.7 77.2L376.3 94.1Z" fill="#19435d" stroke="#001122"></path><path d="M780.3 186.5L678.7 140.2L651.3 196.5Z" fill="#246688" stroke="#001122"></path><path d="M659 118.3L696.3 90.1L632.7 88.2Z" fill="#00101c" stroke="#001122"></path><path d="M400.3 439.7L411 479.8L431.7 423.8Z" fill="#246688" stroke="#001122"></path><path d="M405 480.9L411 479.8L400.3 439.7Z" fill="#15384f" stroke="#001122"></path><path d="M405 480.9L400.3 439.7L357 502.8Z" fill="#081a28" stroke="#001122"></path><path d="M518.7 540L548.7 484.9L467 463.7Z" fill="#205a7a" stroke="#001122"></path><path d="M467 463.7L548.7 484.9L481.3 449.7Z" fill="#1d4e6b" stroke="#001122"></path><path d="M596.3 420.8L638.3 449.8L642 402.6Z" fill="#1d4e6b" stroke="#001122"></path><path d="M357 502.8L400.3 439.7L367.3 401.6Z" fill="#081a28" stroke="#001122"></path><path d="M411 479.8L444.7 528.9L467 463.7Z" fill="#0c2435" stroke="#001122"></path><path d="M289.3 405.7L329 310.7L243.3 372.6Z" fill="#297ea6" stroke="#001122"></path><path d="M289.3 405.7L350.7 328.5L329 310.7Z" fill="#297ea6" stroke="#001122"></path><path d="M657.3 353.5L720 311.7L652.3 269.6Z" fill="#00101c" stroke="#001122"></path><path d="M667.7 261.4L780.3 186.5L651.3 196.5Z" fill="#15384f" stroke="#001122"></path><path d="M743.7 361.8L720 311.7L657.3 353.5Z" fill="#00101c" stroke="#001122"></path><path d="M243.3 372.6L329 310.7L283 264.5Z" fill="#00101c" stroke="#001122"></path><path d="M402 540L411 479.8L405 480.9Z" fill="#297ea6" stroke="#001122"></path><path d="M233 127.1L341.3 166.5L343 125.2Z" fill="#00101c" stroke="#001122"></path><path d="M273.3 219.5L243.7 218.5L283 264.5Z" fill="#112e42" stroke="#001122"></path><path d="M548.7 484.9L638.3 449.8L596.3 420.8Z" fill="#246688" stroke="#001122"></path><path d="M642 402.6L699.3 395.7L657.3 353.5Z" fill="#00101c" stroke="#001122"></path><path d="M440.7 0L408.7 19.1L476 66.1Z" fill="#246688" stroke="#001122"></path><path d="M476 66.1L408.7 19.1L452.3 84.1Z" fill="#081a28" stroke="#001122"></path><path d="M389 63.1L327.3 0L354.7 72.2Z" fill="#297ea6" stroke="#001122"></path><path d="M291.3 55.2L275.7 75.3L346.7 77.2Z" fill="#19435d" stroke="#001122"></path><path d="M440.7 0L476 66.1L540 0Z" fill="#0c2435" stroke="#001122"></path><path d="M774.7 298.5L735.7 288.6L720 311.7Z" fill="#0c2435" stroke="#001122"></path><path d="M720 311.7L735.7 288.6L667.7 261.4Z" fill="#00101c" stroke="#001122"></path><path d="M658 456.9L699.3 395.7L642 402.6Z" fill="#00101c" stroke="#001122"></path><path d="M596 540L658 456.9L638.3 449.8Z" fill="#1d4e6b" stroke="#001122"></path><path d="M638.3 449.8L658 456.9L642 402.6Z" fill="#205a7a" stroke="#001122"></path><path d="M540 0L476 66.1L551.3 71.2Z" fill="#1d4e6b" stroke="#001122"></path><path d="M191 342.6L243.3 372.6L283 264.5Z" fill="#00101c" stroke="#001122"></path><path d="M575.3 0L540 0L551.3 71.2Z" fill="#15384f" stroke="#001122"></path><path d="M357 502.8L367.3 401.6L307.3 416.8Z" fill="#19435d" stroke="#001122"></path><path d="M402 540L444.7 528.9L411 479.8Z" fill="#0c2435" stroke="#001122"></path><path d="M548.7 484.9L596 540L638.3 449.8Z" fill="#297ea6" stroke="#001122"></path><path d="M357 502.8L307.3 416.8L295 463.9Z" fill="#205a7a" stroke="#001122"></path><path d="M739 115.4L696.3 90.1L678.7 140.2Z" fill="#246688" stroke="#001122"></path><path d="M678.7 140.2L696.3 90.1L659 118.3Z" fill="#081a28" stroke="#001122"></path><path d="M632.7 88.2L575.3 0L551.3 71.2Z" fill="#19435d" stroke="#001122"></path><path d="M295 463.9L307.3 416.8L289.3 405.7Z" fill="#1d4e6b" stroke="#001122"></path><path d="M643.3 0L575.3 0L632.7 88.2Z" fill="#19435d" stroke="#001122"></path><path d="M251.7 422.7L295 463.9L289.3 405.7Z" fill="#112e42" stroke="#001122"></path><path d="M291.3 55.2L346.7 77.2L327.3 0Z" fill="#15384f" stroke="#001122"></path><path d="M346.7 77.2L275.7 75.3L343 125.2Z" fill="#1d4e6b" stroke="#001122"></path><path d="M346.7 77.2L354.7 72.2L327.3 0Z" fill="#081a28" stroke="#001122"></path><path d="M743 377.6L743.7 361.8L699.3 395.7Z" fill="#081a28" stroke="#001122"></path><path d="M699.3 395.7L743.7 361.8L657.3 353.5Z" fill="#19435d" stroke="#001122"></path><path d="M233 127.1L273.3 219.5L341.3 166.5Z" fill="#205a7a" stroke="#001122"></path><path d="M243.7 218.5L201.7 223.5L283 264.5Z" fill="#112e42" stroke="#001122"></path><path d="M402 540L464.7 540L444.7 528.9Z" fill="#205a7a" stroke="#001122"></path><path d="M444.7 528.9L464.7 540L467 463.7Z" fill="#1d4e6b" stroke="#001122"></path><path d="M327.3 0L389 63.1L408.7 19.1Z" fill="#246688" stroke="#001122"></path><path d="M464.7 540L518.7 540L467 463.7Z" fill="#1d4e6b" stroke="#001122"></path><path d="M243.3 372.6L251.7 422.7L289.3 405.7Z" fill="#19435d" stroke="#001122"></path><path d="M267 74.3L233 127.1L275.7 75.3Z" fill="#112e42" stroke="#001122"></path><path d="M275.7 75.3L233 127.1L343 125.2Z" fill="#112e42" stroke="#001122"></path><path d="M215 182.5L201.7 223.5L243.7 218.5Z" fill="#0c2435" stroke="#001122"></path><path d="M243.3 372.6L169.7 395.8L251.7 422.7Z" fill="#112e42" stroke="#001122"></path><path d="M575.3 0L563 -12.9L540 0Z" fill="#00101c" stroke="#001122"></path><path d="M540 0L563 -12.9L440.7 0Z" fill="#081a28" stroke="#001122"></path><path d="M643.3 0L563 -12.9L575.3 0Z" fill="#277297" stroke="#001122"></path><path d="M721.3 454.9L743 377.6L699.3 395.7Z" fill="#0c2435" stroke="#001122"></path><path d="M291.3 55.2L267 74.3L275.7 75.3Z" fill="#297ea6" stroke="#001122"></path><path d="M518.7 540L546.3 540L548.7 484.9Z" fill="#205a7a" stroke="#001122"></path><path d="M774.7 298.5L774.7 253.4L735.7 288.6Z" fill="#297ea6" stroke="#001122"></path><path d="M735.7 288.6L774.7 253.4L667.7 261.4Z" fill="#0c2435" stroke="#001122"></path><path d="M774.7 298.5L720 311.7L743.7 361.8Z" fill="#205a7a" stroke="#001122"></path><path d="M378.3 540L402 540L405 480.9Z" fill="#205a7a" stroke="#001122"></path><path d="M378.3 540L405 480.9L357 502.8Z" fill="#205a7a" stroke="#001122"></path><path d="M167.3 198.4L201.7 223.5L215 182.5Z" fill="#0c2435" stroke="#001122"></path><path d="M167.3 198.4L191.7 230.4L201.7 223.5Z" fill="#246688" stroke="#001122"></path><path d="M201.7 223.5L191.7 230.4L283 264.5Z" fill="#00101c" stroke="#001122"></path><path d="M780.3 186.5L739 115.4L678.7 140.2Z" fill="#081a28" stroke="#001122"></path><path d="M650.7 0L643.3 0L632.7 88.2Z" fill="#081a28" stroke="#001122"></path><path d="M785.7 341.7L774.7 298.5L743.7 361.8Z" fill="#19435d" stroke="#001122"></path><path d="M338 540L347.3 520.9L337.7 540Z" fill="#277297" stroke="#001122"></path><path d="M295 463.9L347.3 520.9L357 502.8Z" fill="#00101c" stroke="#001122"></path><path d="M735.3 96.3L716.7 77.3L696.3 90.1Z" fill="#0c2435" stroke="#001122"></path><path d="M347.3 520.9L378.3 540L357 502.8Z" fill="#205a7a" stroke="#001122"></path><path d="M797.3 141.3L735.3 96.3L739 115.4Z" fill="#19435d" stroke="#001122"></path><path d="M739 115.4L735.3 96.3L696.3 90.1Z" fill="#112e42" stroke="#001122"></path><path d="M546.3 540L596 540L548.7 484.9Z" fill="#0c2435" stroke="#001122"></path><path d="M658 456.9L721.3 454.9L699.3 395.7Z" fill="#205a7a" stroke="#001122"></path><path d="M267 74.3L249.3 69.1L233 127.1Z" fill="#0c2435" stroke="#001122"></path><path d="M206 132.4L194 163.3L215 182.5Z" fill="#246688" stroke="#001122"></path><path d="M248.7 63.1L249.3 69.1L267 74.3Z" fill="#297ea6" stroke="#001122"></path><path d="M248.7 63.1L267 74.3L291.3 55.2Z" fill="#1d4e6b" stroke="#001122"></path><path d="M563 -12.9L327.3 0L440.7 0Z" fill="#246688" stroke="#001122"></path><path d="M440.7 0L327.3 0L408.7 19.1Z" fill="#205a7a" stroke="#001122"></path><path d="M164.3 263.5L191 342.6L283 264.5Z" fill="#112e42" stroke="#001122"></path><path d="M206 132.4L215 182.5L233 127.1Z" fill="#246688" stroke="#001122"></path><path d="M632.7 88.2L696.3 90.1L665 0Z" fill="#19435d" stroke="#001122"></path><path d="M650.7 0L632.7 88.2L665 0Z" fill="#246688" stroke="#001122"></path><path d="M183 75.2L206 132.4L233 127.1Z" fill="#081a28" stroke="#001122"></path><path d="M804 226.5L780.3 186.5L774.7 253.4Z" fill="#19435d" stroke="#001122"></path><path d="M774.7 253.4L780.3 186.5L667.7 261.4Z" fill="#246688" stroke="#001122"></path><path d="M254.3 31.2L248.7 63.1L291.3 55.2Z" fill="#081a28" stroke="#001122"></path><path d="M183 75.2L176.3 120.3L206 132.4Z" fill="#277297" stroke="#001122"></path><path d="M713 479.8L721.3 454.9L658 456.9Z" fill="#0c2435" stroke="#001122"></path><path d="M743 377.6L785.7 341.7L743.7 361.8Z" fill="#297ea6" stroke="#001122"></path><path d="M665 0L696.3 90.1L716.7 77.3Z" fill="#297ea6" stroke="#001122"></path><path d="M643.3 0L655.7 -12.9L563 -12.9Z" fill="#1d4e6b" stroke="#001122"></path><path d="M378.3 540L480.3 570.9L402 540Z" fill="#1d4e6b" stroke="#001122"></path><path d="M402 540L480.3 570.9L464.7 540Z" fill="#00101c" stroke="#001122"></path><path d="M464.7 540L480.3 570.9L518.7 540Z" fill="#0c2435" stroke="#001122"></path><path d="M518.7 540L480.3 570.9L546.3 540Z" fill="#1d4e6b" stroke="#001122"></path><path d="M546.3 540L480.3 570.9L596 540Z" fill="#081a28" stroke="#001122"></path><path d="M771.3 44.2L734 76.2L735.3 96.3Z" fill="#277297" stroke="#001122"></path><path d="M735.3 96.3L734 76.2L716.7 77.3Z" fill="#19435d" stroke="#001122"></path><path d="M828.3 374.6L785.7 341.7L743 377.6Z" fill="#205a7a" stroke="#001122"></path><path d="M816.7 278.5L804 226.5L774.7 253.4Z" fill="#0c2435" stroke="#001122"></path><path d="M347.3 520.9L338 540L378.3 540Z" fill="#00101c" stroke="#001122"></path><path d="M378.3 540L338 540L480.3 570.9Z" fill="#112e42" stroke="#001122"></path><path d="M337.7 540L347.3 520.9L291.3 540Z" fill="#277297" stroke="#001122"></path><path d="M347.3 520.9L295 463.9L291.3 540Z" fill="#19435d" stroke="#001122"></path><path d="M222.7 468.8L295 463.9L251.7 422.7Z" fill="#081a28" stroke="#001122"></path><path d="M338 540L337.7 540L480.3 570.9Z" fill="#205a7a" stroke="#001122"></path><path d="M745 -17.9L665 0L716.7 77.3Z" fill="#297ea6" stroke="#001122"></path><path d="M650.7 0L655.7 -12.9L643.3 0Z" fill="#112e42" stroke="#001122"></path><path d="M685.3 540L713 479.8L658 456.9Z" fill="#15384f" stroke="#001122"></path><path d="M721.3 454.9L764 461.7L743 377.6Z" fill="#205a7a" stroke="#001122"></path><path d="M191.7 230.4L164.3 263.5L283 264.5Z" fill="#205a7a" stroke="#001122"></path><path d="M153.7 216.3L164.3 263.5L191.7 230.4Z" fill="#0c2435" stroke="#001122"></path><path d="M176.3 120.3L167.3 198.4L194 163.3Z" fill="#00101c" stroke="#001122"></path><path d="M194 163.3L167.3 198.4L215 182.5Z" fill="#15384f" stroke="#001122"></path><path d="M816.7 278.5L774.7 253.4L774.7 298.5Z" fill="#112e42" stroke="#001122"></path><path d="M780.3 186.5L797.3 141.3L739 115.4Z" fill="#297ea6" stroke="#001122"></path><path d="M745 -17.9L655.7 -12.9L665 0Z" fill="#19435d" stroke="#001122"></path><path d="M665 0L655.7 -12.9L650.7 0Z" fill="#246688" stroke="#001122"></path><path d="M183 75.2L233 127.1L249.3 69.1Z" fill="#205a7a" stroke="#001122"></path><path d="M69.3 171.4L153.7 216.3L167.3 198.4Z" fill="#246688" stroke="#001122"></path><path d="M286 0L254.3 31.2L291.3 55.2Z" fill="#19435d" stroke="#001122"></path><path d="M563 -12.9L286 0L327.3 0Z" fill="#277297" stroke="#001122"></path><path d="M327.3 0L286 0L291.3 55.2Z" fill="#246688" stroke="#001122"></path><path d="M804 226.5L804.3 173.4L780.3 186.5Z" fill="#205a7a" stroke="#001122"></path><path d="M176.3 120.3L194 163.3L206 132.4Z" fill="#1d4e6b" stroke="#001122"></path><path d="M167.3 198.4L153.7 216.3L191.7 230.4Z" fill="#277297" stroke="#001122"></path><path d="M834 316.5L816.7 278.5L774.7 298.5Z" fill="#081a28" stroke="#001122"></path><path d="M868.7 130.2L856 120.3L804.3 173.4Z" fill="#112e42" stroke="#001122"></path><path d="M169.7 395.8L243.3 372.6L191 342.6Z" fill="#00101c" stroke="#001122"></path><path d="M169.7 395.8L222.7 468.8L251.7 422.7Z" fill="#277297" stroke="#001122"></path><path d="M804.3 173.4L797.3 141.3L780.3 186.5Z" fill="#112e42" stroke="#001122"></path><path d="M734 76.2L767.7 19.1L716.7 77.3Z" fill="#19435d" stroke="#001122"></path><path d="M183 75.2L249.3 69.1L248.7 63.1Z" fill="#1d4e6b" stroke="#001122"></path><path d="M222.7 468.8L291.3 540L295 463.9Z" fill="#297ea6" stroke="#001122"></path><path d="M337.7 540L291.3 540L480.3 570.9Z" fill="#1d4e6b" stroke="#001122"></path><path d="M143 365.8L169.7 395.8L191 342.6Z" fill="#277297" stroke="#001122"></path><path d="M135 301.5L191 342.6L164.3 263.5Z" fill="#112e42" stroke="#001122"></path><path d="M480.3 570.9L685.3 540L596 540Z" fill="#15384f" stroke="#001122"></path><path d="M596 540L685.3 540L658 456.9Z" fill="#19435d" stroke="#001122"></path><path d="M713 479.8L764 461.7L721.3 454.9Z" fill="#1d4e6b" stroke="#001122"></path><path d="M720 513.8L764 461.7L713 479.8Z" fill="#297ea6" stroke="#001122"></path><path d="M785.7 341.7L834 316.5L774.7 298.5Z" fill="#19435d" stroke="#001122"></path><path d="M685.3 540L720 513.8L713 479.8Z" fill="#205a7a" stroke="#001122"></path><path d="M87.3 297.5L135 301.5L164.3 263.5Z" fill="#277297" stroke="#001122"></path><path d="M201.7 0L248.7 63.1L254.3 31.2Z" fill="#15384f" stroke="#001122"></path><path d="M201.7 0L183 75.2L248.7 63.1Z" fill="#19435d" stroke="#001122"></path><path d="M176.3 120.3L108.7 122.4L167.3 198.4Z" fill="#297ea6" stroke="#001122"></path><path d="M87.3 297.5L127.3 332.6L135 301.5Z" fill="#19435d" stroke="#001122"></path><path d="M828.3 374.6L834 316.5L785.7 341.7Z" fill="#112e42" stroke="#001122"></path><path d="M868.7 130.2L804.3 173.4L804 226.5Z" fill="#1d4e6b" stroke="#001122"></path><path d="M127.3 332.6L143 365.8L191 342.6Z" fill="#081a28" stroke="#001122"></path><path d="M160 472.7L200.3 504.9L222.7 468.8Z" fill="#277297" stroke="#001122"></path><path d="M563 -12.9L239 0L286 0Z" fill="#277297" stroke="#001122"></path><path d="M286 0L239 0L254.3 31.2Z" fill="#297ea6" stroke="#001122"></path><path d="M797.3 141.3L771.3 44.2L735.3 96.3Z" fill="#112e42" stroke="#001122"></path><path d="M811.7 444.9L828.3 374.6L743 377.6Z" fill="#297ea6" stroke="#001122"></path><path d="M87.3 297.5L164.3 263.5L153.7 216.3Z" fill="#246688" stroke="#001122"></path><path d="M135 301.5L127.3 332.6L191 342.6Z" fill="#0c2435" stroke="#001122"></path><path d="M725 540L722.7 540L840.3 565.9Z" fill="#297ea6" stroke="#001122"></path><path d="M685.3 540L722.7 540L720 513.8Z" fill="#112e42" stroke="#001122"></path><path d="M720 513.8L725 540L764 461.7Z" fill="#19435d" stroke="#001122"></path><path d="M764 461.7L811.7 444.9L743 377.6Z" fill="#19435d" stroke="#001122"></path><path d="M821 554.9L725 540L840.3 565.9Z" fill="#246688" stroke="#001122"></path><path d="M722.7 540L725 540L720 513.8Z" fill="#15384f" stroke="#001122"></path><path d="M874.7 0L767.7 19.1L771.3 44.2Z" fill="#19435d" stroke="#001122"></path><path d="M771.3 44.2L767.7 19.1L734 76.2Z" fill="#1d4e6b" stroke="#001122"></path><path d="M162 458.9L169.7 395.8L127.3 448.7Z" fill="#00101c" stroke="#001122"></path><path d="M162 458.9L222.7 468.8L169.7 395.8Z" fill="#19435d" stroke="#001122"></path><path d="M222.7 468.8L233.7 545.9L291.3 540Z" fill="#277297" stroke="#001122"></path><path d="M831.3 540L811.7 444.9L764 461.7Z" fill="#297ea6" stroke="#001122"></path><path d="M160 472.7L162 458.9L127.3 448.7Z" fill="#0c2435" stroke="#001122"></path><path d="M120.3 0L145.7 90.2L183 75.2Z" fill="#246688" stroke="#001122"></path><path d="M183 75.2L145.7 90.2L176.3 120.3Z" fill="#15384f" stroke="#001122"></path><path d="M200.3 504.9L233.7 545.9L222.7 468.8Z" fill="#1d4e6b" stroke="#001122"></path><path d="M291.3 540L233.7 545.9L480.3 570.9Z" fill="#0c2435" stroke="#001122"></path><path d="M171.3 507.8L233.7 545.9L200.3 504.9Z" fill="#0c2435" stroke="#001122"></path><path d="M767.7 19.1L745 -17.9L716.7 77.3Z" fill="#0c2435" stroke="#001122"></path><path d="M767.7 19.1L762.7 0L762 0Z" fill="#277297" stroke="#001122"></path><path d="M762 0L745 -17.9L767.7 19.1Z" fill="#00101c" stroke="#001122"></path><path d="M762.7 0L745 -17.9L762 0Z" fill="#205a7a" stroke="#001122"></path><path d="M655.7 -12.9L745 -17.9L563 -12.9Z" fill="#1d4e6b" stroke="#001122"></path><path d="M239 0L201.7 0L254.3 31.2Z" fill="#205a7a" stroke="#001122"></path><path d="M563 -12.9L201.7 0L239 0Z" fill="#15384f" stroke="#001122"></path><path d="M127.3 448.7L169.7 395.8L100.7 415.6Z" fill="#0c2435" stroke="#001122"></path><path d="M162 458.9L160 472.7L222.7 468.8Z" fill="#081a28" stroke="#001122"></path><path d="M563 -12.9L190.3 0L201.7 0Z" fill="#112e42" stroke="#001122"></path><path d="M201.7 0L190.3 0L183 75.2Z" fill="#246688" stroke="#001122"></path><path d="M563 -12.9L185.7 0L190.3 0Z" fill="#0c2435" stroke="#001122"></path><path d="M190.3 0L185.7 0L183 75.2Z" fill="#246688" stroke="#001122"></path><path d="M69.3 171.4L87.3 297.5L153.7 216.3Z" fill="#19435d" stroke="#001122"></path><path d="M100.7 415.6L169.7 395.8L143 365.8Z" fill="#246688" stroke="#001122"></path><path d="M767.7 19.1L874.7 0L762.7 0Z" fill="#112e42" stroke="#001122"></path><path d="M797.3 141.3L856 120.3L771.3 44.2Z" fill="#19435d" stroke="#001122"></path><path d="M804.3 173.4L856 120.3L797.3 141.3Z" fill="#081a28" stroke="#001122"></path><path d="M868.7 130.2L804 226.5L941.7 168.5Z" fill="#277297" stroke="#001122"></path><path d="M804 226.5L960 220.5L941.7 168.5Z" fill="#297ea6" stroke="#001122"></path><path d="M116 540L171.3 507.8L160 472.7Z" fill="#297ea6" stroke="#001122"></path><path d="M160 472.7L171.3 507.8L200.3 504.9Z" fill="#00101c" stroke="#001122"></path><path d="M86.3 43.1L108.7 122.4L145.7 90.2Z" fill="#112e42" stroke="#001122"></path><path d="M145.7 90.2L108.7 122.4L176.3 120.3Z" fill="#112e42" stroke="#001122"></path><path d="M100.7 415.6L143 365.8L127.3 332.6Z" fill="#277297" stroke="#001122"></path><path d="M886.7 337.5L816.7 278.5L834 316.5Z" fill="#00101c" stroke="#001122"></path><path d="M856 120.3L874.7 0L771.3 44.2Z" fill="#297ea6" stroke="#001122"></path><path d="M868.7 130.2L869.7 123.4L856 120.3Z" fill="#15384f" stroke="#001122"></path><path d="M869.7 418.8L877.3 375.5L828.3 374.6Z" fill="#15384f" stroke="#001122"></path><path d="M828.3 374.6L886.7 337.5L834 316.5Z" fill="#19435d" stroke="#001122"></path><path d="M868.7 130.2L941.7 168.5L869.7 123.4Z" fill="#081a28" stroke="#001122"></path><path d="M869.7 418.8L828.3 374.6L811.7 444.9Z" fill="#0c2435" stroke="#001122"></path><path d="M877.3 375.5L886.7 337.5L828.3 374.6Z" fill="#081a28" stroke="#001122"></path><path d="M30.7 365.5L100.7 415.6L127.3 332.6Z" fill="#246688" stroke="#001122"></path><path d="M127.3 448.7L118.7 456.9L160 472.7Z" fill="#1d4e6b" stroke="#001122"></path><path d="M100.7 415.6L118.7 456.9L127.3 448.7Z" fill="#15384f" stroke="#001122"></path><path d="M0 221.5L71.3 305.5L87.3 297.5Z" fill="#15384f" stroke="#001122"></path><path d="M87.3 297.5L71.3 305.5L127.3 332.6Z" fill="#246688" stroke="#001122"></path><path d="M867.3 445.7L869.7 418.8L811.7 444.9Z" fill="#297ea6" stroke="#001122"></path><path d="M960 328.6L960 289.5L886.7 337.5Z" fill="#1d4e6b" stroke="#001122"></path><path d="M68.7 169.5L69.3 171.4L108.7 122.4Z" fill="#081a28" stroke="#001122"></path><path d="M108.7 122.4L69.3 171.4L167.3 198.4Z" fill="#15384f" stroke="#001122"></path><path d="M40.7 83.1L68.7 169.5L108.7 122.4Z" fill="#081a28" stroke="#001122"></path><path d="M0 322.5L30.7 365.5L71.3 305.5Z" fill="#297ea6" stroke="#001122"></path><path d="M865.3 499.8L867.3 445.7L811.7 444.9Z" fill="#112e42" stroke="#001122"></path><path d="M960 328.6L886.7 337.5L965.7 364.6Z" fill="#297ea6" stroke="#001122"></path><path d="M821 554.9L831.3 540L764 461.7Z" fill="#00101c" stroke="#001122"></path><path d="M821 554.9L764 461.7L725 540Z" fill="#1d4e6b" stroke="#001122"></path><path d="M563 -12.9L120.3 0L185.7 0Z" fill="#297ea6" stroke="#001122"></path><path d="M185.7 0L120.3 0L183 75.2Z" fill="#00101c" stroke="#001122"></path><path d="M840.3 565.9L722.7 540L685.3 540Z" fill="#277297" stroke="#001122"></path><path d="M59.7 435.7L85.3 466.9L100.7 415.6Z" fill="#1d4e6b" stroke="#001122"></path><path d="M100.7 415.6L85.3 466.9L118.7 456.9Z" fill="#277297" stroke="#001122"></path><path d="M118.7 456.9L116 540L160 472.7Z" fill="#081a28" stroke="#001122"></path><path d="M171.3 507.8L116 540L233.7 545.9Z" fill="#112e42" stroke="#001122"></path><path d="M867.7 540L865.3 499.8L831.3 540Z" fill="#15384f" stroke="#001122"></path><path d="M831.3 540L865.3 499.8L811.7 444.9Z" fill="#297ea6" stroke="#001122"></path><path d="M886.7 337.5L877.3 375.5L965.7 364.6Z" fill="#00101c" stroke="#001122"></path><path d="M120.3 0L86.3 43.1L145.7 90.2Z" fill="#1d4e6b" stroke="#001122"></path><path d="M821 554.9L834.7 550.9L831.3 540Z" fill="#246688" stroke="#001122"></path><path d="M26.3 394.8L59.7 435.7L100.7 415.6Z" fill="#297ea6" stroke="#001122"></path><path d="M30.7 365.5L127.3 332.6L71.3 305.5Z" fill="#205a7a" stroke="#001122"></path><path d="M67.7 540L116 540L85.3 466.9Z" fill="#15384f" stroke="#001122"></path><path d="M85.3 466.9L116 540L118.7 456.9Z" fill="#297ea6" stroke="#001122"></path><path d="M233.7 545.9L67.7 540L480.3 570.9Z" fill="#297ea6" stroke="#001122"></path><path d="M0 221.5L69.3 171.4L-0.7 217.3Z" fill="#277297" stroke="#001122"></path><path d="M0 221.5L87.3 297.5L69.3 171.4Z" fill="#277297" stroke="#001122"></path><path d="M960 289.5L816.7 278.5L886.7 337.5Z" fill="#1d4e6b" stroke="#001122"></path><path d="M960 220.5L804 226.5L816.7 278.5Z" fill="#246688" stroke="#001122"></path><path d="M869.7 123.4L874.7 0L856 120.3Z" fill="#0c2435" stroke="#001122"></path><path d="M762.7 0L874.7 0L745 -17.9Z" fill="#19435d" stroke="#001122"></path><path d="M878.3 0L874.7 0L869.7 123.4Z" fill="#1d4e6b" stroke="#001122"></path><path d="M834.7 550.9L867.7 540L831.3 540Z" fill="#112e42" stroke="#001122"></path><path d="M821 554.9L840.3 565.9L834.7 550.9Z" fill="#297ea6" stroke="#001122"></path><path d="M480.3 570.9L840.3 565.9L685.3 540Z" fill="#297ea6" stroke="#001122"></path><path d="M941.7 62.1L878.3 0L869.7 123.4Z" fill="#0c2435" stroke="#001122"></path><path d="M874.7 0L878.3 0L745 -17.9Z" fill="#081a28" stroke="#001122"></path><path d="M840.3 565.9L867.7 540L834.7 550.9Z" fill="#297ea6" stroke="#001122"></path><path d="M877.3 375.5L960 428.7L965.7 364.6Z" fill="#081a28" stroke="#001122"></path><path d="M30.7 365.5L26.3 394.8L100.7 415.6Z" fill="#205a7a" stroke="#001122"></path><path d="M0 518.8L67.7 540L85.3 466.9Z" fill="#00101c" stroke="#001122"></path><path d="M0 90.2L40.7 83.1L-4.7 51.2Z" fill="#205a7a" stroke="#001122"></path><path d="M86.3 43.1L40.7 83.1L108.7 122.4Z" fill="#205a7a" stroke="#001122"></path><path d="M30.7 365.5L0 372.6L26.3 394.8Z" fill="#081a28" stroke="#001122"></path><path d="M869.7 418.8L960 428.7L877.3 375.5Z" fill="#0c2435" stroke="#001122"></path><path d="M960 289.5L960 220.5L816.7 278.5Z" fill="#00101c" stroke="#001122"></path><path d="M869.7 418.8L867.3 445.7L960 428.7Z" fill="#081a28" stroke="#001122"></path><path d="M-0.7 217.3L69.3 171.4L0 190.4Z" fill="#15384f" stroke="#001122"></path><path d="M0 190.4L69.3 171.4L0 177.3Z" fill="#205a7a" stroke="#001122"></path><path d="M0 221.5L0 322.5L71.3 305.5Z" fill="#277297" stroke="#001122"></path><path d="M-0.7 217.3L0 322.5L0 221.5Z" fill="#277297" stroke="#001122"></path><path d="M980.7 178.3L960 157.4L941.7 168.5Z" fill="#112e42" stroke="#001122"></path><path d="M941.7 168.5L960 107.2L869.7 123.4Z" fill="#0c2435" stroke="#001122"></path><path d="M0 177.3L69.3 171.4L68.7 169.5Z" fill="#246688" stroke="#001122"></path><path d="M40.7 83.1L0 177.3L68.7 169.5Z" fill="#297ea6" stroke="#001122"></path><path d="M0 190.4L0 177.3L-0.7 217.3Z" fill="#277297" stroke="#001122"></path><path d="M960 428.7L867.3 445.7L960 461.8Z" fill="#1d4e6b" stroke="#001122"></path><path d="M960 328.6L965.7 364.6L960 289.5Z" fill="#1d4e6b" stroke="#001122"></path><path d="M960 289.5L980.7 178.3L960 220.5Z" fill="#112e42" stroke="#001122"></path><path d="M960 220.5L980.7 178.3L941.7 168.5Z" fill="#205a7a" stroke="#001122"></path><path d="M-18.7 540L0 372.6L0 322.5Z" fill="#205a7a" stroke="#001122"></path><path d="M0 322.5L0 372.6L30.7 365.5Z" fill="#246688" stroke="#001122"></path><path d="M0 466.9L85.3 466.9L59.7 435.7Z" fill="#19435d" stroke="#001122"></path><path d="M960 107.2L941.7 62.1L869.7 123.4Z" fill="#00101c" stroke="#001122"></path><path d="M941.7 62.1L910.3 1.1L878.3 0Z" fill="#205a7a" stroke="#001122"></path><path d="M878.3 0L960 0L745 -17.9Z" fill="#081a28" stroke="#001122"></path><path d="M980.7 178.3L960 107.2L960 157.4Z" fill="#081a28" stroke="#001122"></path><path d="M960 157.4L960 107.2L941.7 168.5Z" fill="#112e42" stroke="#001122"></path><path d="M0 454.7L59.7 435.7L26.3 394.8Z" fill="#112e42" stroke="#001122"></path><path d="M116 540L67.7 540L233.7 545.9Z" fill="#081a28" stroke="#001122"></path><path d="M965.7 364.6L980.7 178.3L960 289.5Z" fill="#277297" stroke="#001122"></path><path d="M960 461.8L867.3 445.7L865.3 499.8Z" fill="#00101c" stroke="#001122"></path><path d="M960 107.2L960 77.3L941.7 62.1Z" fill="#00101c" stroke="#001122"></path><path d="M941.7 62.1L960 16.1L910.3 1.1Z" fill="#112e42" stroke="#001122"></path><path d="M980.7 178.3L960 77.3L960 107.2Z" fill="#0c2435" stroke="#001122"></path><path d="M-4.7 51.2L40.7 83.1L86.3 43.1Z" fill="#19435d" stroke="#001122"></path><path d="M40.7 83.1L0 90.2L0 177.3Z" fill="#081a28" stroke="#001122"></path><path d="M0 177.3L-4.7 51.2L-0.7 217.3Z" fill="#277297" stroke="#001122"></path><path d="M975.7 455.7L960 461.8L960 533.9Z" fill="#1d4e6b" stroke="#001122"></path><path d="M960 533.9L960 461.8L865.3 499.8Z" fill="#15384f" stroke="#001122"></path><path d="M960 428.7L975.7 455.7L965.7 364.6Z" fill="#277297" stroke="#001122"></path><path d="M965.7 364.6L975.7 455.7L980.7 178.3Z" fill="#081a28" stroke="#001122"></path><path d="M0 372.6L0 454.7L26.3 394.8Z" fill="#19435d" stroke="#001122"></path><path d="M-18.7 540L0 454.7L0 372.6Z" fill="#277297" stroke="#001122"></path><path d="M-18.7 540L0 466.9L0 454.7Z" fill="#1d4e6b" stroke="#001122"></path><path d="M0 454.7L0 466.9L59.7 435.7Z" fill="#0c2435" stroke="#001122"></path><path d="M960 533.9L865.3 499.8L867.7 540Z" fill="#277297" stroke="#001122"></path><path d="M960 461.8L975.7 455.7L960 428.7Z" fill="#0c2435" stroke="#001122"></path><path d="M0 0L-4.7 51.2L86.3 43.1Z" fill="#297ea6" stroke="#001122"></path><path d="M0 90.2L-4.7 51.2L0 177.3Z" fill="#205a7a" stroke="#001122"></path><path d="M-0.7 217.3L-18.7 540L0 322.5Z" fill="#1d4e6b" stroke="#001122"></path><path d="M980.7 178.3L960 16.1L960 77.3Z" fill="#205a7a" stroke="#001122"></path><path d="M960 77.3L960 16.1L941.7 62.1Z" fill="#112e42" stroke="#001122"></path><path d="M980.7 178.3L960 0L960 16.1Z" fill="#297ea6" stroke="#001122"></path><path d="M960 16.1L960 0L910.3 1.1Z" fill="#0c2435" stroke="#001122"></path><path d="M910.3 1.1L960 0L878.3 0Z" fill="#297ea6" stroke="#001122"></path><path d="M-18.7 540L0 518.8L0 466.9Z" fill="#00101c" stroke="#001122"></path><path d="M0 466.9L0 518.8L85.3 466.9Z" fill="#205a7a" stroke="#001122"></path><path d="M0 -0.9L0 0L86.3 43.1Z" fill="#297ea6" stroke="#001122"></path><path d="M0 -0.9L86.3 43.1L120.3 0Z" fill="#1d4e6b" stroke="#001122"></path><path d="M0 -0.9L120.3 0L563 -12.9Z" fill="#081a28" stroke="#001122"></path><path d="M745 -17.9L0 -0.9L563 -12.9Z" fill="#246688" stroke="#001122"></path><path d="M0 0L0 -0.9L-4.7 51.2Z" fill="#297ea6" stroke="#001122"></path><path d="M960 540L960 533.9L867.7 540Z" fill="#081a28" stroke="#001122"></path><path d="M840.3 565.9L960 540L867.7 540Z" fill="#112e42" stroke="#001122"></path><path d="M960 533.9L960 540L975.7 455.7Z" fill="#15384f" stroke="#001122"></path><path d="M-18.7 540L0 540L0 518.8Z" fill="#00101c" stroke="#001122"></path><path d="M0 518.8L0 540L67.7 540Z" fill="#297ea6" stroke="#001122"></path><path d="M67.7 540L0 540L480.3 570.9Z" fill="#19435d" stroke="#001122"></path><path d="M-4.7 51.2L-18.7 540L-0.7 217.3Z" fill="#19435d" stroke="#001122"></path><path d="M0 540L-18.7 540L480.3 570.9Z" fill="#15384f" stroke="#001122"></path></g></svg>